<svg xmlns="http://www.w3.org/2000/svg" version="1.1" xmlns:xlink="http://www.w3.org/1999/xlink" xmlns:svgjs="http://svgjs.dev/svgjs" width="1000" height="131" viewBox="0 0 1000 131"><g transform="matrix(1,0,0,1,-0.6060606060606233,0.6134301881021855)"><svg viewBox="0 0 396 52" data-background-color="#444444" preserveAspectRatio="xMidYMid meet" height="131" width="1000" xmlns="http://www.w3.org/2000/svg" xmlns:xlink="http://www.w3.org/1999/xlink"><g id="tight-bounds" transform="matrix(1,0,0,1,0.2400000000000091,-0.24349900596422458)"><svg viewBox="0 0 395.52 52.48699801192843" height="52.48699801192843" width="395.52"><g><svg viewBox="0 0 395.52 52.48699801192843" height="52.48699801192843" width="395.52"><g><svg viewBox="0 0 395.52 52.48699801192843" height="52.48699801192843" width="395.52"><g id="textblocktransform"><svg viewBox="0 0 395.52 52.48699801192843" height="52.48699801192843" width="395.52" id="textblock"><g><svg viewBox="0 0 395.52 52.48699801192843" height="52.48699801192843" width="395.52"><g transform="matrix(1,0,0,1,0,0)"><svg width="395.52" viewBox="-0.1 -40.95 402.37 53.400000000000006" height="52.48699801192843" data-palette-color="#ffffff"><path d="M-0.1-37.9L-0.1-40 7.9-40.95 8-40.95 9.15-40.2 9.15-25.15Q10.65-26.6 12.73-27.55 14.8-28.5 17.35-28.5L17.35-28.5Q20.35-28.5 22.83-27.05 25.3-25.6 26.78-22.55 28.25-19.5 28.25-14.85L28.25-14.85Q28.25-10.55 26.48-7.05 24.7-3.55 21.4-1.5 18.1 0.55 13.75 0.55L13.75 0.55Q10.3 0.55 7.45-0.13 4.6-0.8 4-1.35L4-1.35 4-37.35-0.1-37.9ZM15.3-24.95Q13.4-24.95 11.78-24.08 10.15-23.2 9.15-22.1L9.15-22.1 9.15-3.7Q9.45-3 10.88-2.58 12.3-2.15 14.1-2.15L14.1-2.15Q17.95-2.15 20.3-5.25 22.65-8.35 22.65-14.3L22.65-14.3Q22.65-19.65 20.6-22.3 18.55-24.95 15.3-24.95L15.3-24.95ZM32.7 0L32.7-2.45 36.45-2.75 36.45-23.9 32.85-24.8 32.85-27.5 39.75-28.4 39.85-28.4 40.95-27.5 40.95-26.6 40.8-22.7 40.95-22.7Q41.45-23.55 42.75-24.9 44.05-26.25 46.1-27.38 48.15-28.5 50.55-28.5L50.55-28.5Q51.55-28.5 52.2-28.25L52.2-28.25 52.2-22.65Q51.85-22.9 51.07-23.13 50.3-23.35 49.35-23.35L49.35-23.35Q45.2-23.35 41.65-20.8L41.65-20.8 41.65-2.8 48-2.4 48 0 32.7 0ZM67.8 0.55Q61.75 0.55 58.57-3.4 55.4-7.35 55.4-13.95L55.4-13.95Q55.4-18.3 57.05-21.6 58.7-24.9 61.67-26.7 64.65-28.5 68.45-28.5L68.45-28.5Q73.09-28.5 75.67-25.93 78.25-23.35 78.4-18.55L78.4-18.55Q78.4-15.5 78.05-13.9L78.05-13.9 60.85-13.9Q60.95-8.95 63.15-5.93 65.34-2.9 69.4-2.9L69.4-2.9Q71.4-2.9 73.57-3.63 75.75-4.35 76.95-5.35L76.95-5.35 77.9-3.15Q76.45-1.65 73.59-0.55 70.75 0.55 67.8 0.55L67.8 0.55ZM60.9-16.55L72.9-16.55Q73.05-17.6 73.05-18.7L73.05-18.7Q73-21.95 71.67-23.83 70.34-25.7 67.5-25.7L67.5-25.7Q64.59-25.7 62.87-23.6 61.15-21.5 60.9-16.55L60.9-16.55ZM85.69-2.9L85.69-23.9 82.09-24.8 82.09-27.5 89.24-28.4 89.39-28.4 90.44-27.5 90.44-25.4 90.39-24.2Q92.19-25.8 95.14-27.1 98.09-28.4 100.79-28.4L100.79-28.4Q103.94-28.4 105.67-27.2 107.39-26 108.09-23.53 108.79-21.05 108.79-16.85L108.79-16.85 108.79-2.85 112.29-2.5 112.29 0 100.44 0 100.44-2.45 103.54-2.85 103.54-16.9Q103.54-19.85 103.14-21.53 102.74-23.2 101.64-24.03 100.54-24.85 98.44-24.85L98.44-24.85Q96.64-24.85 94.59-23.95 92.54-23.05 90.94-21.85L90.94-21.85 90.94-2.9 94.34-2.45 94.34 0 82.54 0 82.54-2.45 85.69-2.9ZM126.69 0.55Q123.69 0.55 121.19-0.95 118.69-2.45 117.22-5.55 115.74-8.65 115.74-13.2L115.74-13.2Q115.74-17.45 117.49-20.95 119.24-24.45 122.52-26.48 125.79-28.5 130.24-28.5L130.24-28.5Q132.79-28.5 134.89-27.95L134.89-27.95 134.89-37.3 129.79-37.9 129.79-40.05 138.79-40.95 138.94-40.95 140.04-40.15 140.04-2.55 142.94-2.55 142.94-0.25Q141.34 0.1 140.17 0.3 138.99 0.5 137.69 0.5L137.69 0.5Q136.39 0.5 135.84 0.05 135.29-0.4 135.29-1.85L135.29-1.85 135.29-3.45Q133.89-1.75 131.62-0.6 129.34 0.55 126.69 0.55L126.69 0.55ZM128.69-3Q130.64-3 132.34-3.88 134.04-4.75 134.89-5.9L134.89-5.9 134.89-24.2Q134.49-24.8 133.02-25.28 131.54-25.75 129.89-25.75L129.89-25.75Q125.99-25.75 123.67-22.78 121.34-19.8 121.34-13.6L121.34-13.6Q121.34-8.2 123.39-5.6 125.44-3 128.69-3L128.69-3ZM146.94-7.5Q146.94-12.2 151.64-14.43 156.34-16.65 163.54-16.8L163.54-16.8 163.54-18.2Q163.54-20.55 163.04-21.9 162.54-23.25 161.31-23.88 160.09-24.5 157.84-24.5L157.84-24.5Q155.29-24.5 153.26-23.78 151.24-23.05 149.24-22L149.24-22 147.99-24.6Q148.64-25.15 150.39-26.05 152.14-26.95 154.44-27.65 156.74-28.35 159.04-28.35L159.04-28.35Q162.59-28.35 164.66-27.38 166.74-26.4 167.64-24.25 168.54-22.1 168.54-18.5L168.54-18.5 168.54-2.45 171.49-2.45 171.49-0.25Q170.49 0 168.96 0.25 167.44 0.5 166.29 0.5L166.29 0.5Q164.89 0.5 164.39 0.08 163.89-0.35 163.89-1.8L163.89-1.8 163.89-3.45Q162.39-1.95 160.21-0.7 158.04 0.55 155.29 0.55L155.29 0.55Q151.69 0.55 149.31-1.53 146.94-3.6 146.94-7.5L146.94-7.5ZM157.44-2.85Q158.74-2.85 160.44-3.65 162.14-4.45 163.54-5.55L163.54-5.55 163.54-14.15Q158.09-14.15 155.31-12.48 152.54-10.8 152.54-8.1L152.54-8.1Q152.54-5.4 153.86-4.13 155.19-2.85 157.44-2.85L157.44-2.85ZM177.99-2.9L177.99-23.9 174.39-24.8 174.39-27.5 181.54-28.4 181.69-28.4 182.74-27.5 182.74-25.4 182.69-24.2Q184.49-25.8 187.44-27.1 190.39-28.4 193.09-28.4L193.09-28.4Q196.24-28.4 197.96-27.2 199.69-26 200.39-23.53 201.09-21.05 201.09-16.85L201.09-16.85 201.09-2.85 204.59-2.5 204.59 0 192.74 0 192.74-2.45 195.84-2.85 195.84-16.9Q195.84-19.85 195.44-21.53 195.04-23.2 193.94-24.03 192.84-24.85 190.74-24.85L190.74-24.85Q188.94-24.85 186.89-23.95 184.84-23.05 183.24-21.85L183.24-21.85 183.24-2.9 186.64-2.45 186.64 0 174.84 0 174.84-2.45 177.99-2.9ZM228.58 0.5Q225.73 0.5 224.33-0.8 222.93-2.1 222.93-5.25L222.93-5.25 222.93-24.45 219.33-24.45 219.33-26.7Q219.58-26.75 220.73-27.05 221.88-27.35 222.28-27.6L222.28-27.6Q223.08-28.05 223.53-29.4L223.53-29.4Q223.93-30.35 224.48-32.45 225.03-34.55 225.13-34.95L225.13-34.95 228.08-34.95 228.18-27.75 236.53-27.75 236.53-24.45 228.18-24.45 228.18-9.1Q228.18-6.25 228.36-5.1 228.53-3.95 229.11-3.6 229.68-3.25 231.08-3.25L231.08-3.25Q232.43-3.25 234.06-3.6 235.68-3.95 236.58-4.35L236.58-4.35 237.33-2.1Q236.13-1.2 233.46-0.35 230.78 0.5 228.58 0.5L228.58 0.5ZM240.48 0L240.48-2.45 244.23-2.75 244.23-23.9 240.63-24.8 240.63-27.5 247.53-28.4 247.63-28.4 248.73-27.5 248.73-26.6 248.58-22.7 248.73-22.7Q249.23-23.55 250.53-24.9 251.83-26.25 253.88-27.38 255.93-28.5 258.33-28.5L258.33-28.5Q259.33-28.5 259.98-28.25L259.98-28.25 259.98-22.65Q259.63-22.9 258.85-23.13 258.08-23.35 257.13-23.35L257.13-23.35Q252.98-23.35 249.43-20.8L249.43-20.8 249.43-2.8 255.78-2.4 255.78 0 240.48 0ZM275.58 0.55Q269.53 0.55 266.35-3.4 263.18-7.35 263.18-13.95L263.18-13.95Q263.18-18.3 264.83-21.6 266.48-24.9 269.45-26.7 272.43-28.5 276.23-28.5L276.23-28.5Q280.88-28.5 283.45-25.93 286.03-23.35 286.18-18.55L286.18-18.55Q286.18-15.5 285.83-13.9L285.83-13.9 268.63-13.9Q268.73-8.95 270.93-5.93 273.13-2.9 277.18-2.9L277.18-2.9Q279.18-2.9 281.35-3.63 283.53-4.35 284.73-5.35L284.73-5.35 285.68-3.15Q284.23-1.65 281.38-0.55 278.53 0.55 275.58 0.55L275.58 0.55ZM268.68-16.55L280.68-16.55Q280.83-17.6 280.83-18.7L280.83-18.7Q280.78-21.95 279.45-23.83 278.13-25.7 275.28-25.7L275.28-25.7Q272.38-25.7 270.65-23.6 268.93-21.5 268.68-16.55L268.68-16.55ZM294.52 12.45Q293.67 12.45 292.85 12.35 292.02 12.25 291.67 12.05L291.67 12.05 291.67 7.7Q291.97 7.9 292.85 8 293.72 8.1 294.52 8.1L294.52 8.1Q296.92 8.1 298.75 6.43 300.57 4.75 302.27 0L302.27 0 299.87 0 290.37-24.75 288.07-25.4 288.07-27.75 300.12-27.75 300.12-25.4 296.27-24.8 301.17-10.05 303.47-2.75 305.62-10.1 310.07-24.8 306.72-25.4 306.72-27.75 316.77-27.75 316.77-25.4 314.27-24.8Q306.92-2.3 305.62 0.75L305.62 0.75Q303.92 5.05 302.52 7.48 301.12 9.9 299.22 11.18 297.32 12.45 294.52 12.45L294.52 12.45ZM322.07-2.9L322.07-23.9 318.47-24.8 318.47-27.5 325.62-28.4 325.77-28.4 326.82-27.5 326.82-25.4 326.77-24.2Q328.57-25.8 331.52-27.1 334.47-28.4 337.17-28.4L337.17-28.4Q340.32-28.4 342.05-27.2 343.77-26 344.47-23.53 345.17-21.05 345.17-16.85L345.17-16.85 345.17-2.85 348.67-2.5 348.67 0 336.82 0 336.82-2.45 339.92-2.85 339.92-16.9Q339.92-19.85 339.52-21.53 339.12-23.2 338.02-24.03 336.92-24.85 334.82-24.85L334.82-24.85Q333.02-24.85 330.97-23.95 328.92-23.05 327.32-21.85L327.32-21.85 327.32-2.9 330.72-2.45 330.72 0 318.92 0 318.92-2.45 322.07-2.9ZM352.27-13.95Q352.27-18.45 354.12-21.75 355.97-25.05 358.99-26.78 362.02-28.5 365.47-28.5L365.47-28.5Q371.77-28.5 374.94-24.5 378.12-20.5 378.12-14L378.12-14Q378.12-9.45 376.27-6.15 374.42-2.85 371.39-1.15 368.37 0.55 364.92 0.55L364.92 0.55Q358.62 0.55 355.44-3.45 352.27-7.45 352.27-13.95L352.27-13.95ZM365.22-2.3Q368.67-2.3 370.52-5.15 372.37-8 372.37-13.6L372.37-13.6Q372.37-19.15 370.67-22.4 368.97-25.65 365.22-25.65L365.22-25.65Q361.77-25.65 359.89-22.8 358.02-19.95 358.02-14.35L358.02-14.35Q358.02-8.8 359.77-5.55 361.52-2.3 365.22-2.3L365.22-2.3ZM382.77 0L382.77-2.45 386.52-2.75 386.52-23.9 382.92-24.8 382.92-27.5 389.81-28.4 389.92-28.4 391.02-27.5 391.02-26.6 390.87-22.7 391.02-22.7Q391.52-23.55 392.81-24.9 394.12-26.25 396.17-27.38 398.22-28.5 400.62-28.5L400.62-28.5Q401.62-28.5 402.27-28.25L402.27-28.25 402.27-22.65Q401.92-22.9 401.14-23.13 400.37-23.35 399.42-23.35L399.42-23.35Q395.27-23.35 391.72-20.8L391.72-20.8 391.72-2.8 398.06-2.4 398.06 0 382.77 0Z" opacity="1" transform="matrix(1,0,0,1,0,0)" fill="#ffffff" class="wordmark-text-0" data-fill-palette-color="primary" id="text-0"></path></svg></g></svg></g></svg></g></svg></g></svg></g><defs></defs></svg><rect width="395.52" height="52.48699801192843" fill="none" stroke="none" visibility="hidden"></rect></g></svg></g></svg>